<?xml version="1.0" encoding="UTF-8" standalone="no"?>
<svg
   xmlns:dc="http://purl.org/dc/elements/1.1/"
   xmlns:cc="http://creativecommons.org/ns#"
   xmlns:rdf="http://www.w3.org/1999/02/22-rdf-syntax-ns#"
   xmlns:svg="http://www.w3.org/2000/svg"
   xmlns="http://www.w3.org/2000/svg"
   xmlns:sodipodi="http://sodipodi.sourceforge.net/DTD/sodipodi-0.dtd"
   xmlns:inkscape="http://www.inkscape.org/namespaces/inkscape"
   version="1.1"
   x="0px"
   y="0px"
   viewBox="0 0 97.421997 97.421997"
   enable-background="new 0 0 100 100"
   xml:space="preserve"
   id="svg3746"
   sodipodi:docname="compass.svg"
   width="97.421997"
   height="97.421997"
   inkscape:version="0.92.1 r15371"><metadata
     id="metadata3752"><rdf:RDF><cc:Work
         rdf:about=""><dc:format>image/svg+xml</dc:format><dc:type
           rdf:resource="http://purl.org/dc/dcmitype/StillImage" /></cc:Work></rdf:RDF></metadata><defs
     id="defs3750" /><sodipodi:namedview
     pagecolor="#ffffff"
     bordercolor="#666666"
     borderopacity="1"
     objecttolerance="10"
     gridtolerance="10"
     guidetolerance="10"
     inkscape:pageopacity="0"
     inkscape:pageshadow="2"
     inkscape:window-width="1855"
     inkscape:window-height="1056"
     id="namedview3748"
     showgrid="false"
     inkscape:zoom="7.312"
     inkscape:cx="72.849403"
     inkscape:cy="36.211"
     inkscape:window-x="65"
     inkscape:window-y="24"
     inkscape:window-maximized="1"
     inkscape:current-layer="svg3746" /><g
     id="g3738"
     transform="matrix(0.9,0,0,0.9,3.711,3.711)"><path
       d="M 50,98.711 C 23.14,98.711 1.289,76.859 1.289,50 1.289,23.141 23.14,1.289 50,1.289 c 26.86,0 48.711,21.852 48.711,48.712 0,26.858 -21.852,48.71 -48.711,48.71 z M 50,7.289 C 26.449,7.289 7.289,26.449 7.289,50 7.289,73.55 26.449,92.71 50,92.71 73.551,92.71 92.711,73.55 92.711,50 92.711,26.449 73.551,7.289 50,7.289 Z"
       id="path3736"
       inkscape:connector-curvature="0"
       style="fill:#000000" /></g><path
     d="m 48.694381,83.753824 c 1.790394,8.03e-4 3.240613,-1.448116 3.241416,-3.238511 l 0.01497,-31.802123 0.01497,-31.803539 c 8.02e-4,-1.788979 -1.450237,-3.239906 -3.239217,-3.240709 -0.89449,-0.0011 -1.704996,0.361982 -2.291451,0.94791 -0.586454,0.585929 -0.949563,1.395403 -0.949965,2.2906 l -0.01426,31.802832 -0.01497,31.802123 c -8.03e-4,1.790395 1.450237,3.241322 3.23851,3.241417 z M 46.484955,16.9079 c 2.68e-4,-0.598212 0.233159,-1.160257 0.656198,-1.582918 0.42304,-0.42266 0.986001,-0.655752 1.584213,-0.655484 0.598212,2.68e-4 1.160258,0.233158 1.583625,0.656905 0.423367,0.423747 0.65646,0.985295 0.656192,1.583507 l -0.01452,30.803689 -4.480228,-0.002 z"
     id="path3740"
     inkscape:connector-curvature="0" /></svg>